<svg version="1.0" xmlns="http://www.w3.org/2000/svg"
 width="95" height="107" viewBox="0 0 235.000000 273.000000"
 preserveAspectRatio="xMidYMid meet">

<g transform="translate(0.000000,273.000000) scale(0.100000,-0.100000)"
fill="#F0E68C" stroke="none">
<path d="M972 2554 c-230 -61 -430 -277 -511 -549 -11 -38 -41 -160 -66 -270
-25 -110 -52 -230 -61 -267 -8 -37 -33 -125 -55 -195 -75 -240 -74 -340 4
-496 77 -153 249 -290 567 -448 201 -100 269 -115 367 -83 145 47 467 226 598
331 147 119 239 320 219 482 -3 31 -26 119 -51 196 -25 77 -69 250 -99 385
-75 332 -97 408 -154 525 -97 200 -258 343 -437 390 -72 19 -250 19 -321 -1z
m-82 -799 c23 -8 78 -31 122 -51 72 -32 87 -36 147 -32 54 3 83 12 156 48 84
42 95 45 172 45 74 0 85 -3 124 -30 24 -17 57 -53 74 -80 67 -109 22 -255 -99
-317 -26 -13 -69 -22 -127 -27 l-88 -6 31 -45 c49 -72 86 -159 114 -266 46
-177 20 -300 -82 -393 -76 -70 -141 -93 -281 -99 -94 -4 -122 -1 -181 17 -157
48 -252 169 -252 325 0 113 58 292 134 410 l36 56 -55 0 c-83 0 -152 19 -198
54 -76 58 -110 150 -87 235 14 53 80 127 135 152 49 23 146 25 205 4z"/>
<path d="M765 1568 c11 -36 45 -87 65 -98 30 -16 93 -11 128 10 17 11 32 24
32 30 0 15 -88 56 -148 69 -77 16 -85 15 -77 -11z"/>
<path d="M1389 1572 c-67 -18 -119 -45 -119 -62 0 -19 65 -50 103 -50 60 0 99
34 121 108 9 28 -10 28 -105 4z"/>
<path d="M987 1172 c-24 -27 -21 -58 9 -81 55 -43 104 -12 82 52 -17 46 -62
61 -91 29z"/>
<path d="M1198 1173 c-59 -67 -3 -136 66 -82 32 25 34 62 4 83 -29 21 -51 20
-70 -1z"/>
<path d="M938 859 c-25 -14 -24 -75 1 -89 12 -6 93 -10 195 -10 189 0 206 5
206 55 0 51 -17 55 -208 55 -102 0 -184 -5 -194 -11z"/>
<path d="M190 1809 c-100 -45 -120 -87 -120 -252 0 -78 6 -144 15 -182 17 -66
62 -142 75 -129 21 23 155 566 142 579 -12 11 -70 3 -112 -16z"/>
<path d="M1957 1824 c-9 -16 100 -484 129 -554 l15 -35 19 23 c44 54 63 130
67 277 5 133 4 142 -19 185 -16 29 -41 55 -71 74 -46 28 -130 46 -140 30z"/>
</g>
</svg>
